 <svg  version="1.0" xmlns="http://www.w3.org/2000/svg"  width="300.000000pt" height="300.000000pt" viewBox="0 0 300.000000 300.000000"  preserveAspectRatio="xMidYMid meet">  <g transform="translate(0.000000,300.000000) scale(0.100000,-0.100000)" fill="#ffffff" stroke="none"> <path d="M1476 1985 c-9 -25 -7 -798 2 -813 5 -7 16 -10 25 -6 16 6 17 40 15 417 -3 371 -5 412 -19 415 -9 2 -19 -4 -23 -13z"/> <path d="M1591 1836 c-8 -9 -10 -101 -9 -287 3 -266 4 -274 23 -274 19 0 20 8 23 281 2 238 0 283 -12 287 -8 3 -19 0 -25 -7z"/> <path d="M1370 1813 c-3 -61 1 -537 4 -541 3 -2 12 -2 21 2 13 5 15 38 13 273 -3 246 -4 268 -20 271 -10 2 -18 0 -18 -5z"/> <path d="M1686 1775 c-9 -26 -7 -398 3 -414 5 -8 16 -11 25 -8 15 6 16 31 14 219 -3 187 -5 213 -19 216 -9 2 -19 -4 -23 -13z"/> <path d="M1265 1728 c-3 -8 -4 -95 -3 -193 3 -172 4 -180 23 -180 19 0 20 7 20 190 0 173 -2 190 -18 193 -9 2 -19 -3 -22 -10z"/> <path d="M1802 1728 c-14 -14 -17 -325 -3 -347 5 -8 16 -11 25 -8 15 6 16 28 14 183 -3 175 -8 200 -36 172z"/> <path d="M1155 1668 c-3 -8 -4 -77 -3 -153 3 -132 4 -140 23 -140 19 0 20 7 20 150 0 135 -2 150 -18 153 -9 2 -19 -3 -22 -10z"/> <path d="M1906 1665 c-9 -25 -7 -258 3 -274 5 -8 16 -11 25 -8 14 6 16 25 14 149 -3 122 -5 143 -19 146 -9 2 -19 -4 -23 -13z"/> <path d="M1047 1653 c-12 -11 -8 -261 3 -268 6 -4 17 -1 25 5 19 16 22 239 3 258 -14 14 -22 15 -31 5z"/> <path d="M928 1524 c-2 -81 1 -119 9 -126 26 -21 33 5 33 123 0 111 -1 119 -19 119 -18 0 -20 -9 -23 -116z"/> <path d="M2020 1521 c0 -115 8 -147 31 -124 10 10 21 199 13 226 -3 9 -14 17 -25 17 -18 0 -19 -8 -19 -119z"/> </g> </svg> 
